<svg preserveAspectRatio="none" overflow="visible" style="display: block;" width="24" height="24" viewBox="0 0 24 24" fill="none" xmlns="http://www.w3.org/2000/svg">
<g id="icon">
<g id="foreground">
<path d="M14.0832 14.0836C14.4738 13.693 14.4738 13.0599 14.0832 12.6694C13.6927 12.2788 13.0595 12.2788 12.669 12.6694C12.2785 13.0599 12.2785 13.693 12.669 14.0836C13.0595 14.4741 13.6927 14.4741 14.0832 14.0836Z" fill="#161617"/>
<path d="M10.3708 10.3707C10.7614 9.98016 10.7614 9.34699 10.3708 8.95647C9.98031 8.56594 9.34714 8.56594 8.95662 8.95647C8.56609 9.34699 8.56609 9.98016 8.95662 10.3707C9.34714 10.7612 9.98031 10.7612 10.3708 10.3707Z" fill="#161617"/>
<path d="M9.04548 12.7577C8.70377 13.0995 8.70377 13.6535 9.04548 13.9952C9.38719 14.3369 9.9412 14.3369 10.2829 13.9952L13.9952 10.2829C14.3369 9.94116 14.3369 9.38714 13.9952 9.04544C13.6535 8.70373 13.0995 8.70373 12.7578 9.04544L9.04548 12.7577Z" fill="#161617"/>
<path fill-rule="evenodd" clip-rule="evenodd" d="M13.2315 2.99402C12.9032 2.66581 12.4503 2.49362 11.987 2.52087L4.21142 2.97826C3.54722 3.01733 3.01733 3.54722 2.97826 4.21142L2.52087 11.987C2.49362 12.4503 2.66581 12.9032 2.99402 13.2315L11.2255 21.463C11.8601 22.0976 12.889 22.0976 13.5236 21.463L21.463 13.5236C22.0976 12.889 22.0976 11.8601 21.463 11.2255L13.2315 2.99402ZM4.27115 12.0337L4.7024 4.7024L12.0337 4.27115L20.1371 12.3746L12.3746 20.1371L4.27115 12.0337Z" fill="#161617"/>
</g>
</g>
</svg>
